<svg width="51" height="51" version="1.1" viewBox="0 0 51 51" xmlns="http://www.w3.org/2000/svg">
	<path d="m14.45 0c-0.256 0-0.4762 0.117-0.6309 0.293l-13.53 13.53c-0.09407 0.08434-0.1734 0.1833-0.2227 0.3008-2.444e-4 5.82e-4 2.431e-4 0.0014 0 2e-3 -3.511e-4 8.35e-4 -0.001605 0.0011-0.001953 2e-3 -0.04148 0.1001-0.06445 0.2085-0.06445 0.3222v30.6c0 0.476 0.3736 0.8496 0.8496 0.8496h25.5c0.476 0 0.8496-0.3736 0.8496-0.8496 0-0.4607-0.3736-0.8516-0.8496-0.8516h-24.65v-28.9h12.75c0.476 0 0.8516-0.3756 0.8516-0.8516v-12.75h20.4v24.65c0 0.476 0.3756 0.8496 0.8516 0.8496s0.8496-0.3736 0.8496-0.8496v-25.5c0-0.459-0.3736-0.8496-0.8496-0.8496zm-0.8496 2.906v10.69h-10.69zm26.35 25.99c-6.086 0-11.05 4.963-11.05 11.05 0 6.103 4.965 11.05 11.05 11.05s11.05-4.948 11.05-11.05c0-6.086-4.963-11.05-11.05-11.05zm0 1.699c5.151 0 9.35 4.197 9.35 9.35 0 5.168-4.199 9.352-9.35 9.352s-9.352-4.184-9.352-9.352c0-5.153 4.201-9.35 9.352-9.35zm6.799 5.1c-0.2168 0-0.4322 0.08586-0.5938 0.2559l-8.008 8.008-4.521-3.01c-0.391-0.272-0.9175-0.1527-1.189 0.2383-0.255 0.391-0.1547 0.9169 0.2363 1.172l5.102 3.4c0.153 0.1003 0.3046 0.1367 0.4746 0.1367 0.221 0 0.4427-0.08528 0.5957-0.2383l8.5-8.5c0.3401-0.34 0.3401-0.884 0-1.207-0.1615-0.17-0.379-0.2559-0.5957-0.2559z" fill="#ffb200"/>
</svg>
