<svg width="11" height="30" viewBox="0 0 11 30" fill="none" xmlns="http://www.w3.org/2000/svg">
<path d="M3.5 27C3.77614 27 4 26.7761 4 26.5C4 26.2239 3.77614 26 3.5 26C3.22386 26 3 26.2239 3 26.5C3 26.7761 3.22386 27 3.5 27Z" fill="#FFB200"/>
<path d="M7.5 27C7.77614 27 8 26.7761 8 26.5C8 26.2239 7.77614 26 7.5 26C7.22386 26 7 26.2239 7 26.5C7 26.7761 7.22386 27 7.5 27Z" fill="#FFB200"/>
<path d="M5.5 27C5.77614 27 6 26.7761 6 26.5C6 26.2239 5.77614 26 5.5 26C5.22386 26 5 26.2239 5 26.5C5 26.7761 5.22386 27 5.5 27Z" fill="#FFB200"/>
<path fill-rule="evenodd" clip-rule="evenodd" d="M11 25.3125V21.7969C11 21.6071 10.9101 21.4291 10.7589 21.3192C10.6076 21.2093 10.4136 21.1811 10.2384 21.2436L9.51042 21.5033V15.2344C9.51042 15.1716 9.50045 15.1089 9.4808 15.0494L9.48011 15.0469L9.47942 15.0444L6.49659 6.14672L6.93596 6.37957C7.01897 6.42357 7.10944 6.44531 7.1995 6.44531C7.31907 6.44531 7.43806 6.40705 7.53821 6.33199C7.71381 6.20033 7.80129 5.97832 7.76399 5.75895L7.49163 4.15805L8.64692 3.02279C8.80481 2.86758 8.86245 2.63385 8.7953 2.42068C8.72816 2.20746 8.54803 2.05201 8.33118 2.02031L6.72782 1.78541L6.01224 0.32373C5.91519 0.125273 5.71691 0 5.5 0C5.28309 0 5.08481 0.125273 4.9877 0.323613L4.27212 1.78529L2.66876 2.0202C2.45197 2.05195 2.27179 2.20734 2.20464 2.42057C2.13749 2.63379 2.19507 2.86746 2.35303 3.02268L3.50831 4.15793L3.23595 5.75883C3.19865 5.9782 3.28608 6.20027 3.46173 6.33187C3.63728 6.46348 3.87074 6.48193 4.06398 6.37951L4.50335 6.14666L1.52052 15.0443L1.51983 15.0468L1.51915 15.0493C1.49972 15.1087 1.48958 15.1717 1.48958 15.2344V21.5033L0.761578 21.2436C0.586323 21.1811 0.392391 21.2092 0.241141 21.3192C0.0898906 21.4291 0 21.6071 0 21.7969V25.3125V30H11V25.3125ZM8.36458 15.8203V21.6124L7.3311 21.2436C7.2089 21.2 7.07586 21.2 6.95372 21.2436L5.5 21.7622L4.04634 21.2436C3.92414 21.2 3.7911 21.2 3.6689 21.2436L2.63542 21.6124V15.8203H8.36458ZM4.73143 2.90186L3.9938 3.0099L4.52209 3.52887C4.65942 3.66387 4.72221 3.85986 4.68955 4.05182L4.56305 4.7952L5.23646 4.4383C5.31907 4.39447 5.40959 4.37256 5.50006 4.37256C5.59052 4.37256 5.68104 4.39447 5.76366 4.4383L6.43706 4.7952L6.31056 4.05182C6.27791 3.85986 6.3407 3.66387 6.47803 3.52887L7.0062 3.0099L6.26857 2.90186C6.08266 2.87461 5.92161 2.7559 5.83751 2.58416L5.5 1.89469L5.16249 2.58416C5.07839 2.7559 4.91734 2.87461 4.73143 2.90186ZM5.5 6.78709L8.13542 14.6484H6.07292V12.7734C6.07292 12.4498 5.81642 12.1875 5.5 12.1875C5.18358 12.1875 4.92708 12.4498 4.92708 12.7734V14.6484H2.86458L5.5 6.78709ZM3.20833 25.3125H1.14583V28.8281H9.85417V25.3125H7.79167C7.47599 25.3125 7.21875 25.0494 7.21875 24.7266C7.21875 24.4037 7.47599 24.1406 7.79167 24.1406H9.85417V22.6218L8.97342 22.9361C8.85128 22.9796 8.71824 22.9796 8.59604 22.9361L7.14244 22.4174L5.68872 22.9361C5.56663 22.9796 5.43354 22.9796 5.31134 22.9361L3.85768 22.4174L2.40402 22.9361C2.28187 22.9796 2.14884 22.9796 2.02664 22.9361L1.14583 22.6218V24.1406H3.20833C3.52401 24.1406 3.78125 24.4037 3.78125 24.7266C3.78125 25.0494 3.52401 25.3125 3.20833 25.3125Z" fill="#FFB200"/>
<path d="M5.5 24C5.2245 24 5 24.2245 5 24.5C5 24.7755 5.2245 25 5.5 25C5.7755 25 6 24.7755 6 24.5C6 24.2245 5.7755 24 5.5 24Z" fill="#FFB200"/>
<path fill-rule="evenodd" clip-rule="evenodd" d="M5.5 20C6.32843 20 7 19.3284 7 18.5C7 17.6716 6.32843 17 5.5 17C4.67157 17 4 17.6716 4 18.5C4 19.3284 4.67157 20 5.5 20Z" stroke="#FFB200"/>
</svg>
