<svg width="50" height="50" version="1.1" viewBox="0 0 50 50" xmlns="http://www.w3.org/2000/svg">
	<path d="m25 0c-0.07459 0-0.151 0.01042-0.2227 0.03125l-24.17 6.666c-0.01993 0.00542-0.03546 0.0186-0.05469 0.02539-0.03891 0.01376-0.0734 0.03166-0.1094 0.05078-0.05545 0.02927-0.1056 0.06325-0.1523 0.1035-0.02741 0.02362-0.05206 0.04725-0.07617 0.07422-0.04385 0.04893-0.07815 0.1021-0.1094 0.1602-0.01716 0.03178-0.0378 0.05963-0.05078 0.09375-0.03546 0.0931-0.05859 0.1925-0.05859 0.2969v41.66c0 0.4617 0.3723 0.834 0.834 0.834h48.33c0.46 0 0.834-0.3723 0.834-0.834v-41.66c0-0.1065-0.02351-0.2081-0.06055-0.3027-0.01193-0.03061-0.03156-0.05527-0.04687-0.08398-0.0307-0.05763-0.0643-0.1114-0.1074-0.1602-0.02645-0.02994-0.05548-0.05422-0.08594-0.08008-0.04598-0.03913-0.09418-0.07296-0.1484-0.1016-0.03595-0.01909-0.07054-0.03704-0.1094-0.05078-0.01924-0.00679-0.03476-0.01997-0.05469-0.02539l-24.17-6.666c-0.07165-0.02083-0.1461-0.03125-0.2207-0.03125zm0 1.697 18.02 4.971h-36.04zm-23.33 6.637h46.67v4.998h-46.67zm0 6.666h46.67v6.666h-46.67zm0 8.332h46.67v25h-1.668v-12.5c0-0.46-0.374-0.832-0.834-0.832h-0.832v-5.834c0-0.46-0.374-0.834-0.834-0.834h-8.332c-0.4616 0-0.834 0.374-0.834 0.834v5.834h-2.5c-0.4616 0-0.834 0.372-0.834 0.832v12.5h-1.666v-7.5c0-0.46-0.372-0.832-0.832-0.832h-10c-0.4616 0-0.834 0.372-0.834 0.832v7.5h-1.666v-7.5c0-0.46-0.374-0.832-0.834-0.832h-2.5v-7.5c0-0.46-0.374-0.834-0.834-0.834h-8.332c-0.4617 0-0.834 0.374-0.834 0.834v15.83h-1.668zm35 6.668h6.668v5h-6.668zm-31.67 3.332h6.668v6.668h-6.668zm28.33 3.334h11.67v11.67h-11.67zm-28.33 5h10v6.666h-10zm15 0h8.334v6.666h-8.334z" fill="#ffb200"/>
</svg>
