<svg width="11" height="30" version="1.1" viewBox="0 0 11 30" xmlns="http://www.w3.org/2000/svg">
	<path d="m5.5 0c-0.2169 0-0.4146 0.1259-0.5117 0.3242l-0.7168 1.461-1.604 0.2344c-0.2168 0.03175-0.3957 0.1872-0.4629 0.4004-0.06715 0.2132-0.00952 0.4483 0.1484 0.6035l1.154 1.135-0.2715 1.602c-0.0373 0.2194 0.04896 0.4407 0.2246 0.5723 0.1756 0.1316 0.4103 0.1493 0.6035 0.04688l0.4395-0.2324-2.982 8.898-0.00195 2e-3v2e-3c-0.01943 0.0594-0.0293 0.1228-0.0293 0.1855v6.27l-0.7285-0.2599c-0.1753-0.0625-0.3702-0.03578-0.5215 0.07422-0.1513 0.1099-0.2402 0.2887-0.2402 0.4785v8.203h11v-8.203c0-0.1898-0.08903-0.3686-0.2402-0.4785-0.1513-0.1099-0.3463-0.1367-0.5215-0.07422l-0.7285 0.2598v-6.27c0-0.0628-0.00965-0.126-0.0293-0.1855v-2e-3l-0.00195-2e-3 -2.982-8.898 0.4395 0.2324c0.08301 0.044 0.1736 0.06641 0.2637 0.06641 0.1196 0 0.2397-0.03822 0.3398-0.1133 0.1756-0.1317 0.2619-0.3529 0.2246-0.5723l-0.2715-1.601 1.154-1.135c0.1579-0.1552 0.2156-0.3903 0.1484-0.6035-0.06714-0.2132-0.246-0.3687-0.4629-0.4004l-1.604-0.2344-0.7168-1.461c-0.09705-0.1985-0.2948-0.3242-0.5117-0.3242zm0 1.895 0.3379 0.6895c0.0841 0.1717 0.2457 0.2911 0.4316 0.3184l0.7363 0.1074-0.5273 0.5195c-0.1373 0.135-0.2006 0.3315-0.168 0.5234l0.127 0.7422-0.6738-0.3574c-0.08262-0.04383-0.1732-0.06445-0.2637-0.06445-0.09047 0-0.1811 0.02062-0.2637 0.06445l-0.6738 0.3574 0.127-0.7422c0.03266-0.192-0.03064-0.3884-0.168-0.5234l-0.5273-0.5195 0.7363-0.1074c0.1859-0.02725 0.3475-0.1466 0.4316-0.3184zm0 4.893 2.635 7.861h-2.062v-1.875c0-0.3236-0.2558-0.5859-0.5723-0.5859s-0.5723 0.2623-0.5723 0.5859v1.875h-2.062zm-2.865 9.033h5.73v5.793l-1.033-0.3691c-0.1222-0.0436-0.2568-0.0436-0.3789 0l-1.453 0.5176-1.453-0.5176c-0.1222-0.0436-0.2567-0.0436-0.3789 0l-1.033 0.3691zm2.865 0.6797c-1.099 0-2 0.9014-2 2s0.9013 2 2 2 2-0.9014 2-2-0.9013-2-2-2zm0 1c0.5582 0 1 0.4418 1 1s-0.4418 1-1 1-1-0.4418-1-1 0.4418-1 1-1zm-1.643 4.918 1.453 0.5176c0.1222 0.0435 0.2568 0.0435 0.3789 0l1.453-0.5176 1.453 0.5176c0.1222 0.0435 0.2548 0.0435 0.377 0l0.8809-0.3145v1.52h-2.062c-0.3157 0-0.5723 0.263-0.5723 0.5859 0 0.3228 0.2566 0.5859 0.5723 0.5859h2.062v3.516h-8.707v-3.516h2.062c0.3157 0 0.5723-0.2631 0.5723-0.5859 0-0.3229-0.2566-0.5859-0.5723-0.5859h-2.062v-1.52l0.8809 0.3145c0.1222 0.0435 0.2548 0.0435 0.377 0zm1.643 1.582c-0.2755 0-0.5 0.2245-0.5 0.5s0.2245 0.5 0.5 0.5 0.5-0.2245 0.5-0.5-0.2245-0.5-0.5-0.5zm-2 2c-0.2761 0-0.5 0.2239-0.5 0.5s0.2239 0.5 0.5 0.5 0.5-0.2239 0.5-0.5-0.2239-0.5-0.5-0.5zm2 0c-0.2761 0-0.5 0.2239-0.5 0.5s0.2239 0.5 0.5 0.5 0.5-0.2239 0.5-0.5-0.2239-0.5-0.5-0.5zm2 0c-0.2761 0-0.5 0.2239-0.5 0.5s0.2239 0.5 0.5 0.5 0.5-0.2239 0.5-0.5-0.2239-0.5-0.5-0.5z"/>
</svg>
