<svg width="53" height="51" version="1.1" viewBox="0 0 53 51" xmlns="http://www.w3.org/2000/svg">
	<path d="m33.55 4.647e-4c-1.424-0.01454-2.839 0.3122-4.047 0.9609l-9.801 5.264c-0.1526-0.1354-0.3488-0.2246-0.5723-0.2246h-7.826c-6.33 0-11.3 5.357-11.3 12.2v1.93c0 0.02293 0.01197 0.04197 0.01367 0.06445-0.002812 0.08104-0.01367 0.1605-0.01367 0.2422v22.82c0 4.272 3.391 7.748 7.561 7.748h37.88c4.099 0 7.561-3.729 7.561-8.143v-22.62c0-0.03172-0.0054-0.06214-0.0059-0.09375 2.98e-4 -0.0096 0.0059-0.01762 0.0059-0.02734v-2.225c0-6.78-4.783-11.89-11.14-11.89-0.1535 0-0.2886 0.0521-0.4121 0.123l-0.4746-1.041c0.03908-0.2024 0.0245-0.4176-0.07813-0.6113-0.08728-0.1537-0.2155-0.2579-0.3555-0.3379l-0.0625-0.1387c-0.8508-1.694-2.409-2.97-4.395-3.596-0.8176-0.2579-1.675-0.3897-2.529-0.3984zm-0.0078 1.766c0.6745 0.00862 1.352 0.1148 2.004 0.3203 1.464 0.4602 2.613 1.367 3.236 2.529l-14.82 8.385h-13.13l19.52-10.48c0.9528-0.5106 2.065-0.7663 3.189-0.752zm6.01 4.506 3.064 6.729h-14.96zm-28.25 1.471h5.574l-9.904 5.32c-1.935 0.223-3.653 1.099-4.902 2.385 1.081-4.484 4.75-7.705 9.232-7.705zm30.9 0.04102c4.413 0.1561 7.862 3.253 8.812 7.635-1.447-1.488-3.564-2.418-5.965-2.418h-0.4688zm-34.25 7.025h15.41c0.1601 0.1199 0.3506 0.1914 0.5391 0.1914 0.144 0 0.3076-0.03823 0.4336-0.1152l0.1348-0.07617h19.1c0.1562 0.1192 0.3426 0.1914 0.5391 0.1914 0.1241 0 0.247-0.02698 0.3711-0.08008 0.06001-0.02729 0.1037-0.07317 0.1543-0.1113h0.416c3.039 0 6.182 2.031 6.182 5.43v3.762h-8.133c-4.248 0-8.1 3.812-8.1 8 0 4.187 3.852 8 8.1 8h8.133v2.857c0 3.373-2.701 6.334-5.793 6.334h-37.88c-3.198 0-5.793-2.666-5.793-5.939v-22.82c0-2.681 2.073-4.926 4.838-5.486 0.2274 0.07652 0.482 0.06869 0.7051-0.05274l0.1152-0.0625c0.1731-0.01329 0.3466-0.02344 0.5234-0.02344zm35.15 10.97h8.1v12.45h-8.1c-3.24 0-6.299-3.024-6.299-6.223s3.059-6.223 6.299-6.223zm0.4004 4.223c-1.383 0-2.5 1.122-2.5 2.5s1.117 2.5 2.5 2.5 2.5-1.122 2.5-2.5-1.117-2.5-2.5-2.5zm0 1.666c0.4667 0 0.834 0.374 0.834 0.834 0 0.4583-0.3673 0.834-0.834 0.834s-0.834-0.3757-0.834-0.834c0-0.46 0.3673-0.834 0.834-0.834z"/>
</svg>
