<svg width="60" height="43.45" version="1.1" viewBox="0 0 60 43.45" xmlns="http://www.w3.org/2000/svg">
	<path d="m1.035 0c-0.571 0-1.035 0.4765-1.035 1.035v8.275c0 0.5793 0.4641 1.035 1.035 1.035 0.571 0 1.033-0.4558 1.033-1.035v-7.242h7.242c0.5711 0 1.035-0.4539 1.035-1.033 0-0.5586-0.4641-1.035-1.035-1.035zm49.65 0c-0.5711 0-1.035 0.4765-1.035 1.035 0 0.5793 0.4641 1.033 1.035 1.033h7.24v7.242c0 0.5793 0.4642 1.035 1.035 1.035 0.5711 0 1.035-0.4558 1.035-1.035v-8.275c0-0.5586-0.4641-1.035-1.035-1.035zm-45.52 8.275c-0.571 0-1.035 0.4765-1.035 1.035v24.83c0 0.5794 0.4641 1.033 1.035 1.033 0.571 0 1.033-0.4538 1.033-1.033v-24.83c0-0.5586-0.4622-1.035-1.033-1.035zm6.207 0c-0.571 0-1.035 0.4765-1.035 1.035v20.69c0 0.5793 0.4642 1.035 1.035 1.035s1.033-0.4559 1.033-1.035v-20.69c0-0.5586-0.4622-1.035-1.033-1.035zm6.205 0c-0.5711 0-1.035 0.4765-1.035 1.035v20.69c0 0.5793 0.4641 1.035 1.035 1.035 0.571 0 1.033-0.4559 1.033-1.035v-20.69c0-0.5586-0.4622-1.035-1.033-1.035zm6.207 0c-0.571 0-1.035 0.4765-1.035 1.035v20.69c1e-6 0.5793 0.4642 1.035 1.035 1.035s1.033-0.4559 1.033-1.035v-20.69c0-0.5586-0.4622-1.035-1.033-1.035zm6.207 0c-0.571 0-1.035 0.4765-1.035 1.035v24.83c0 0.5794 0.4642 1.033 1.035 1.033 0.5711 0 1.033-0.4538 1.033-1.033v-24.83c0-0.5586-0.4621-1.035-1.033-1.035zm6.207 0c-0.5711 0-1.035 0.4765-1.035 1.035v20.69c0 0.5793 0.4641 1.035 1.035 1.035 0.571 0 1.033-0.4559 1.033-1.035v-20.69c0-0.5586-0.4622-1.035-1.033-1.035zm6.207 0c-0.571 0-1.035 0.4765-1.035 1.035v20.69c0 0.5793 0.4642 1.035 1.035 1.035s1.033-0.4559 1.033-1.035v-20.69c0-0.5586-0.4622-1.035-1.033-1.035zm6.207 0c-0.571 0-1.035 0.4765-1.035 1.035v20.69c0 0.5793 0.4642 1.035 1.035 1.035 0.5711 0 1.033-0.4559 1.033-1.035v-20.69c0-0.5586-0.4621-1.035-1.033-1.035zm6.207 0c-0.5711 0-1.035 0.4765-1.035 1.035v24.83c0 0.5794 0.4641 1.033 1.035 1.033 0.571 0 1.033-0.4538 1.033-1.033v-24.83c0-0.5586-0.4622-1.035-1.033-1.035zm-53.79 24.83c-0.571 0-1.035 0.4766-1.035 1.035v8.275c0 0.5793 0.4641 1.035 1.035 1.035h8.275c0.5711 0 1.035-0.4559 1.035-1.035 0-0.5587-0.4641-1.035-1.035-1.035h-7.242v-7.24c0-0.5586-0.4622-1.035-1.033-1.035zm57.93 0c-0.571 0-1.035 0.4766-1.035 1.035v7.24h-7.24c-0.5711 0-1.035 0.4765-1.035 1.035 0 0.5793 0.4641 1.035 1.035 1.035h8.275c0.5711 0 1.035-0.4559 1.035-1.035v-8.275c0-0.5586-0.4641-1.035-1.035-1.035zm-22.75 0.0078c-0.2664-0.0026-0.5406 0.09583-0.7578 0.3027-0.1862 0.1862-0.2891 0.4556-0.2891 0.7246 0 0.2689 0.1036 0.5372 0.3105 0.7441 0.1862 0.1862 0.4556 0.2891 0.7246 0.2891 0.2689 0 0.5365-0.1029 0.7227-0.2891 0.2069-0.2069 0.3105-0.4752 0.3105-0.7441 0-0.269-0.1036-0.5384-0.3105-0.7246-0.1862-0.1966-0.4446-0.3001-0.7109-0.3027zm-24.85 0.0059c-0.2664 0.0026-0.5305 0.1003-0.7168 0.2969-0.2068 0.1862-0.3105 0.4556-0.3105 0.7246s0.1037 0.5364 0.3105 0.7227c0.1863 0.2068 0.4556 0.3105 0.7246 0.3105s0.5372-0.1037 0.7441-0.3105c0.1862-0.1863 0.2891-0.4537 0.2891-0.7227s-0.1036-0.5392-0.3105-0.7461c-0.1966-0.1862-0.4641-0.278-0.7305-0.2754zm6.197 0c-0.269 0.0026-0.5331 0.1003-0.709 0.2969-0.2069 0.1862-0.3105 0.4556-0.3105 0.7246s0.1036 0.5364 0.3105 0.7227c0.1862 0.2068 0.4556 0.3105 0.7246 0.3105 0.2689 0 0.5372-0.1037 0.7441-0.3105 0.1862-0.1863 0.2891-0.4537 0.2891-0.7227s-0.1036-0.5392-0.3105-0.7461c-0.1966-0.1862-0.4693-0.278-0.7383-0.2754zm6.227 0c-0.269 0.0026-0.5431 0.1003-0.75 0.2969-0.1862 0.1862-0.2891 0.4556-0.2891 0.7246s0.1036 0.5372 0.3105 0.7441c0.1862 0.1862 0.4556 0.2891 0.7246 0.2891s0.5372-0.1037 0.7441-0.3105c0.1862-0.1863 0.2891-0.4537 0.2891-0.7227s-0.1036-0.5392-0.3105-0.7461c-0.1862-0.1862-0.4498-0.278-0.7188-0.2754zm18.61 0c-0.2664 0.0026-0.5306 0.1003-0.7168 0.2969-0.2069 0.1862-0.3105 0.4556-0.3105 0.7246s0.1036 0.5364 0.3105 0.7227c0.1862 0.2068 0.4556 0.3105 0.7246 0.3105 0.269 0 0.5165-0.1037 0.7441-0.3105 0.1862-0.1863 0.2891-0.4537 0.2891-0.7227s-0.1036-0.5392-0.3105-0.7461c-0.1966-0.1862-0.4641-0.278-0.7305-0.2754zm6.199 0c-0.269 0.0026-0.5331 0.1003-0.709 0.2969-0.2069 0.1862-0.3105 0.4556-0.3105 0.7246-1e-6 0.269 0.1036 0.5364 0.3105 0.7227 0.1862 0.2068 0.4557 0.3105 0.7246 0.3105 0.269 0 0.5373-0.1037 0.7441-0.3105 0.1863-0.1863 0.2891-0.4537 0.2891-0.7227s-0.1036-0.5392-0.3105-0.7461c-0.1966-0.1862-0.4693-0.278-0.7383-0.2754z"/>
</svg>
