<svg width="40" height="50" version="1.1" viewBox="0 0 40 50" xmlns="http://www.w3.org/2000/svg">
	<path d="m20 0c-0.28 0-0.5403 0.1397-0.6953 0.373-2.062 3.105-5.64 4.887-9.816 4.887-3.148 0-5.715-0.236-7.713-3.223-0.1533-0.2317-0.415-0.3711-0.6934-0.3711h-0.25c-0.46 0-0.834 0.374-0.834 0.834v23.55c0 13 18.8 23.41 19.6 23.85 0.1233 0.0684 0.2617 0.1016 0.3984 0.1016s0.2751-0.03316 0.3984-0.1016c0.8017-0.4366 19.6-10.85 19.6-23.85v-23.55c0-0.46-0.374-0.834-0.834-0.834h-0.25c-0.2784-1e-7 -0.54 0.1394-0.6934 0.3711-1.998 2.987-4.565 3.223-7.713 3.223-4.177 0-7.754-1.782-9.812-4.887-0.155-0.2333-0.4153-0.373-0.6953-0.373zm-0.0039 2.238c2.435 2.995 6.202 4.688 10.51 4.688 2.837 0 5.573-0.2102 7.824-2.41v21.53c0 11.02-15.62 20.58-18.33 22.16-2.718-1.58-18.33-11.14-18.33-22.16v-21.53c2.252 2.2 4.988 2.41 7.824 2.41 4.312 0 8.076-1.692 10.51-4.688zm7.449 14.43c-0.2129 0.01375-0.4195 0.1076-0.5703 0.2793l-9.59 10.88-4.105-5.807c-0.2667-0.3783-0.7888-0.464-1.162-0.1973-0.375 0.265-0.464 0.7852-0.1973 1.16l4.713 6.668c0.1467 0.2067 0.38 0.3363 0.6367 0.3496 0.0133 0.0017 0.02797 2e-3 0.04297 2e-3 0.24 0 0.4667-0.1012 0.625-0.2812l10.29-11.67c0.3033-0.345 0.2708-0.8708-0.07422-1.176-0.1742-0.1534-0.3926-0.2208-0.6055-0.207z"/>
</svg>
