<svg width="29" height="29" version="1.1" viewBox="0 0 29 29" xmlns="http://www.w3.org/2000/svg">
	<path d="m2.5 0c-1.376 0-2.5 1.124-2.5 2.5v3c0 1.376 1.124 2.5 2.5 2.5h3c1.376 0 2.5-1.124 2.5-2.5v-3c0-1.376-1.124-2.5-2.5-2.5zm10 0c-1.376 0-2.5 1.124-2.5 2.5v3c0 1.376 1.124 2.5 2.5 2.5h14c1.376 0 2.5-1.124 2.5-2.5v-3c0-1.376-1.124-2.5-2.5-2.5zm-10 1h3c0.8396 0 1.5 0.6604 1.5 1.5v3c0 0.8396-0.6604 1.5-1.5 1.5h-3c-0.8396 0-1.5-0.6604-1.5-1.5v-3c0-0.8396 0.6604-1.5 1.5-1.5zm10 0h14c0.8396 0 1.5 0.6604 1.5 1.5v3c0 0.8396-0.6604 1.5-1.5 1.5h-14c-0.8396 0-1.5-0.6604-1.5-1.5v-3c0-0.8396 0.6604-1.5 1.5-1.5zm-10 9c-1.376 0-2.5 1.124-2.5 2.5v3c0 1.376 1.124 2.5 2.5 2.5h3c1.376 0 2.5-1.124 2.5-2.5v-3c0-1.376-1.124-2.5-2.5-2.5zm9.801 0c-1.376 0-2.5 1.124-2.5 2.5v3c0 1.376 1.124 2.5 2.5 2.5h14.2c1.376 0 2.5-1.124 2.5-2.5v-3c0-1.376-1.124-2.5-2.5-2.5zm-9.801 1h3c0.8396 0 1.5 0.6604 1.5 1.5v3c0 0.8396-0.6604 1.5-1.5 1.5h-3c-0.8396 0-1.5-0.6604-1.5-1.5v-3c0-0.8396 0.6604-1.5 1.5-1.5zm9.801 0h14.2c0.8396 0 1.5 0.6604 1.5 1.5v3c0 0.8396-0.6604 1.5-1.5 1.5h-14.2c-0.8396 0-1.5-0.6604-1.5-1.5v-3c0-0.8396 0.6604-1.5 1.5-1.5zm-9.801 10c-1.376 0-2.5 1.124-2.5 2.5v3c0 1.376 1.124 2.5 2.5 2.5h3c1.376 0 2.5-1.124 2.5-2.5v-3c0-1.376-1.124-2.5-2.5-2.5zm10 0c-1.376 0-2.5 1.124-2.5 2.5v3c0 1.376 1.124 2.5 2.5 2.5h14c1.376 0 2.5-1.124 2.5-2.5v-3c0-1.376-1.124-2.5-2.5-2.5zm-10 1h3c0.8396 0 1.5 0.6604 1.5 1.5v3c0 0.8396-0.6604 1.5-1.5 1.5h-3c-0.8396 0-1.5-0.6604-1.5-1.5v-3c0-0.8396 0.6604-1.5 1.5-1.5zm10 0h14c0.8396 0 1.5 0.6604 1.5 1.5v3c0 0.8396-0.6604 1.5-1.5 1.5h-14c-0.8396 0-1.5-0.6604-1.5-1.5v-3c0-0.8396 0.6604-1.5 1.5-1.5z"/>
</svg>
