<svg width="29" height="29" version="1.1" viewBox="0 0 29 29" xmlns="http://www.w3.org/2000/svg">
	<path d="m3.5 0c-1.93 0-3.5 1.57-3.5 3.5v6c0 1.93 1.57 3.5 3.5 3.5h6c1.93 0 3.5-1.57 3.5-3.5v-6c0-1.93-1.57-3.5-3.5-3.5zm16 0c-1.93 0-3.5 1.57-3.5 3.5v6c0 1.93 1.57 3.5 3.5 3.5h6c1.93 0 3.5-1.57 3.5-3.5v-6c0-1.93-1.57-3.5-3.5-3.5zm-16 1h6c1.394 0 2.5 1.106 2.5 2.5v6c0 1.394-1.106 2.5-2.5 2.5h-6c-1.394 0-2.5-1.106-2.5-2.5v-6c0-1.394 1.106-2.5 2.5-2.5zm16 0h6c1.394 0 2.5 1.106 2.5 2.5v6c0 1.394-1.106 2.5-2.5 2.5h-6c-1.394 0-2.5-1.106-2.5-2.5v-6c0-1.394 1.106-2.5 2.5-2.5zm-16 15c-1.93 0-3.5 1.57-3.5 3.5v6c0 1.93 1.57 3.5 3.5 3.5h6c1.93 0 3.5-1.57 3.5-3.5v-6c0-1.93-1.57-3.5-3.5-3.5zm16 0c-1.93 0-3.5 1.57-3.5 3.5v6c0 1.93 1.57 3.5 3.5 3.5h6c1.93 0 3.5-1.57 3.5-3.5v-6c0-1.93-1.57-3.5-3.5-3.5zm-16 1h6c1.394 0 2.5 1.106 2.5 2.5v6c0 1.394-1.106 2.5-2.5 2.5h-6c-1.394 0-2.5-1.106-2.5-2.5v-6c0-1.394 1.106-2.5 2.5-2.5zm16 0h6c1.394 0 2.5 1.106 2.5 2.5v6c0 1.394-1.106 2.5-2.5 2.5h-6c-1.394 0-2.5-1.106-2.5-2.5v-6c0-1.394 1.106-2.5 2.5-2.5z"/>
</svg>
