<svg width="53" height="42.61" version="1.1" viewBox="0 0 53 42.61" xmlns="http://www.w3.org/2000/svg">
	<path d="m5.354 0c-2.95 0-5.354 2.355-5.354 5.25v30.1c0 1.711 1.378 3.104 3.092 3.104h4.289c0.4844 2.369 2.587 4.156 5.09 4.156 2.142 0 3.993-1.308 4.785-3.17 0.06887 0.02224 0.1358 0.05273 0.2109 0.05273h20.14c0.07579 0 0.1435-0.03011 0.2129-0.05273 0.7925 1.862 2.641 3.17 4.783 3.17 2.503 0 4.607-1.787 5.092-4.156h2.209c1.696 0 3.092-1.393 3.092-3.104v-11.96c0-0.1063-0.01743-0.2112-0.05273-0.3105l-5.301-14.18c-0.1413-0.3457-0.4591-0.5762-0.8301-0.5762h-11.48v-3.064c0-2.895-2.403-5.25-5.354-5.25zm0 1.773h24.63c1.979 0 3.586 1.558 3.586 3.477v22.56h-31.8v-22.56c0-1.918 1.607-3.477 3.586-3.477zm29.98 8.313h10.87l5.033 13.46v11.8c0 0.7339-0.5998 1.33-1.324 1.33h-2.162c-0.3594-2.518-2.53-4.463-5.139-4.463-2.858 0-5.195 2.332-5.195 5.197h-19.74c0-2.865-2.339-5.197-5.197-5.197-2.609 0-4.777 1.945-5.137 4.463h-4.242c-0.7243 0-1.324-0.5962-1.324-1.33v-5.76h32.68c0.4947 0 0.8848-0.3957 0.8848-0.8867zm2.943 2.385c-0.4849 0-0.8652 0.3872-0.8652 0.8652v8.66c0 0.4798 0.3803 0.8672 0.8652 0.8672h8.66c0.4849 0 0.8672-0.3874 0.8672-0.8672 0-0.478-0.3823-0.8652-0.8672-0.8652h-7.793v-7.795c0-0.478-0.3822-0.8652-0.8672-0.8652zm-25.81 21.48c1.905 0 3.465 1.554 3.465 3.465 0 1.91-1.56 3.463-3.465 3.463-1.905 0-3.463-1.552-3.463-3.463 0-1.91 1.558-3.465 3.463-3.465zm30.14 0c1.905 0 3.465 1.554 3.465 3.465 0 1.91-1.56 3.463-3.465 3.463s-3.463-1.552-3.463-3.463c0-1.91 1.558-3.465 3.463-3.465z"/>
</svg>
